# xmcd
#
# Track frame offsets:
#	150
#	14738
#	30992
#	44870
#	58541
#	69777
#	83675
#	96739
#	113323
#	125225
#	135239
#	147608
#
# Disc length: 2090 seconds
#
# Revision: 0
# Processed by: cddbd v1.5.2PL0 Copyright (c) Steve Scherf et al.
# Submitted via: EasyCDDAExtractor 11.9.9.666
#
DISCID=a808280c
DTITLE=Tommy Webb - Bluegrass Boys
DYEAR=2019
DGENRE=Kindred
TTITLE0=Bluegrass Boys
TTITLE1=Doing Her Wrong
TTITLE2=If We Believe
TTITLE3=She's Between The Two of Us Again
TTITLE4=Honey In The Rock
TTITLE5=I Depend On You
TTITLE6=Shackle Run
TTITLE7=Duty Not Desire
TTITLE8=Mary Jane
TTITLE9=Jesus Rescue Me
TTITLE10=Anything
TTITLE11=Rocks And Roses
EXTD=
EXTT0=
EXTT1=
EXTT2=
EXTT3=
EXTT4=
EXTT5=
EXTT6=
EXTT7=
EXTT8=
EXTT9=
EXTT10=
EXTT11=
PLAYORDER=
